<svg width="123" height="39" viewBox="0 0 123 39" fill="none" xmlns="http://www.w3.org/2000/svg">
<path fill-rule="evenodd" clip-rule="evenodd" d="M30.2778 0.158851C29.4601 0.615035 26.5221 4.21135 24.5518 7.16781L24.1582 7.75848L22.8267 8.13588C20.0607 8.92 16.8569 10.0297 14.1233 11.1507C8.44133 13.4807 2.83845 16.7301 0.90406 18.8172C-0.167084 19.973 -0.285382 20.7406 0.543755 21.1563C0.922119 21.3461 0.993569 21.3438 0.82406 21.1474C0.605434 20.8942 0.653766 20.5152 0.946459 20.1874C1.35448 19.7303 3.68966 17.8677 4.78986 17.1216C8.92612 14.3169 13.611 12.1277 19.6195 10.1916C21.6645 9.53261 23.183 9.09596 23.2475 9.1482C23.2734 9.16929 23.1401 9.43663 22.9512 9.7424C21.1836 12.6038 18.9215 17.6065 17.3068 22.2249C16.4701 24.6182 14.6655 30.2978 14.1657 32.1113C14.1334 32.2284 14.184 32.29 14.3772 32.3682C14.7781 32.5305 15.0665 32.4482 15.1645 32.1438C15.21 32.0023 15.4886 31.1061 15.7836 30.1524C18.496 21.3825 21.4411 14.1904 24.3816 9.15506C24.5936 8.79203 24.6865 8.70659 24.9412 8.64055C27.2872 8.03205 31.6034 7.08556 33.9808 6.65833C36.5208 6.20179 40.684 5.7255 44.2214 5.48676C51.6594 4.98478 60.7649 5.10192 66.2498 5.7701C68.4203 6.03453 70.6506 6.43211 71.7788 6.75586C72.3415 6.91732 72.5747 6.90153 72.5747 6.70193C72.5747 6.36678 72.3442 6.27958 70.132 5.77831C67.5466 5.19245 63.478 4.64694 59.445 4.34541C57.4618 4.19713 50.2273 4.1313 47.7983 4.23945C44.837 4.37132 41.989 4.57864 39.903 4.8142C34.7636 5.39453 30.7355 6.09845 26.5662 7.14467C26.0925 7.26358 25.6752 7.36083 25.6388 7.36083C25.5351 7.36083 26.7304 5.51535 27.5183 4.4588C27.9102 3.93325 28.6153 3.00956 29.0851 2.40615C30.8563 0.131671 31.0791 -0.288132 30.2778 0.158851ZM27.1866 10.6698C27.1112 10.738 26.9718 10.953 26.8769 11.1476C26.782 11.3423 26.5015 11.8837 26.2536 12.3509C24.5548 15.552 22.8132 19.5098 21.5816 22.9681C21.2627 23.8635 20.8838 24.9031 20.7395 25.2783C20.4088 26.1386 20.4262 26.2501 20.9234 26.4535C21.2431 26.5843 21.3377 26.5967 21.4622 26.5243C21.5453 26.4759 22.0358 26.0223 22.5523 25.5162C23.0688 25.0101 23.7453 24.395 24.0556 24.1494C24.6749 23.6591 25.3593 23.2483 25.4434 23.3165C25.4729 23.3405 25.4877 23.8688 25.4763 24.4905C25.4583 25.483 25.4766 25.6593 25.627 25.9351C25.8061 26.2637 26.0663 26.4165 26.5826 26.4962C27.0867 26.574 27.8345 26.1792 29.3287 25.0463L30.2893 24.3181L30.2106 24.5987C30.1675 24.753 30.132 25.1733 30.132 25.5327C30.132 26.1688 30.1392 26.1919 30.4019 26.405C30.9039 26.812 31.7737 26.7428 32.8598 26.2094C33.5604 25.8653 35.3229 24.6583 35.3229 24.5226C35.3229 24.2719 34.8612 24.4629 33.5781 25.2446C32.0677 26.1648 31.572 26.3853 31.2676 26.2728C30.9079 26.1398 30.9239 25.4848 31.3117 24.4662C31.5782 23.7659 31.957 23.3623 32.5846 23.1096C34.7957 22.2196 35.6246 21.325 34.8776 20.6348C34.5217 20.3059 34.0594 20.2891 33.4852 20.5846C32.9238 20.8734 32.007 21.7198 31.5162 22.4022C31.2615 22.7564 30.987 23.0429 30.83 23.1186C30.686 23.1878 30.0579 23.5795 29.4341 23.9888C27.0417 25.5589 26.8243 25.6931 26.6744 25.6931C26.5314 25.6931 26.524 25.6146 26.5723 24.612C26.62 23.6204 26.6093 23.5034 26.4444 23.2008C26.3099 22.9542 26.1754 22.8339 25.9117 22.7248C25.1598 22.4136 24.6437 22.5993 23.3054 23.6625C22.8616 24.0151 22.4985 24.2622 22.4985 24.2115C22.4985 23.9953 24.6416 18.0863 25.3626 16.3146C25.6002 15.7307 26.0555 14.7158 26.3744 14.0594C27.1093 12.5465 27.3846 11.7853 27.4468 11.0945C27.4978 10.5275 27.4431 10.4382 27.1866 10.6698ZM50.4156 15.0879C48.5365 15.2078 47.1692 15.7157 45.879 16.7729C44.4583 17.937 43.8463 19.1629 43.8463 20.8446C43.8463 22.0767 44.2071 23.1145 44.9706 24.0788C46.1681 25.5914 48.23 26.5303 50.6407 26.6609C52.5357 26.7636 54.5689 26.2488 55.7154 25.3762L56.1824 25.0207L55.9099 24.7553C55.7599 24.6093 55.6004 24.4899 55.5552 24.4899C55.51 24.4899 55.2555 24.6336 54.9896 24.8094C53.9226 25.5145 52.7245 25.8353 51.165 25.8336C49.3573 25.8317 47.954 25.3952 46.7653 24.4652C45.5233 23.4935 44.9194 22.3023 44.9194 20.8243C44.9194 18.901 46.1706 17.2424 48.2513 16.4077C49.1132 16.0619 49.7663 15.9266 50.8117 15.8771C52.5223 15.7963 54.1676 16.2366 55.2615 17.0681L55.5274 17.2701L55.8679 16.9873L56.2083 16.7044L55.9074 16.4513C55.4407 16.0588 54.4648 15.6015 53.5832 15.3623C52.6587 15.1114 51.5507 15.0155 50.4156 15.0879ZM57.1913 15.1232C57.1593 15.1491 57.1331 15.3402 57.1331 15.5479V15.9253H59.6631H62.1931V21.2693V26.6133H62.7601H63.3272V21.2693V15.9253H65.8136H68.2999V15.5007V15.076H62.7747C59.7358 15.076 57.2232 15.0972 57.1913 15.1232ZM117.393 15.1504C116.138 15.2689 114.982 15.6946 114.231 16.3149C112.511 17.7354 112.573 20.621 114.351 21.9566C114.797 22.2916 115.687 22.7203 115.936 22.7203C115.983 22.7203 116.021 22.7533 116.021 22.7936C116.021 22.8339 115.343 23.6466 114.516 24.5996C113.688 25.5526 112.957 26.3955 112.891 26.4728C112.775 26.6088 112.791 26.6133 113.388 26.6133H114.004L115.852 24.4737C116.868 23.2969 117.715 22.3001 117.735 22.2585C117.756 22.2127 117.51 22.1524 117.109 22.1055C115.806 21.9532 114.772 21.3395 114.353 20.4696C114.083 19.9095 114.018 18.6 114.231 18.0055C114.418 17.4835 114.903 16.8883 115.358 16.6208C116.331 16.0486 117.13 15.9253 119.867 15.9253H121.953V21.2693V26.6133H122.477H123V20.8446V15.076L120.492 15.0852C119.112 15.0904 117.718 15.1196 117.393 15.1504ZM84.7594 15.194C84.7274 15.2199 84.7012 17.6247 84.7012 20.5379V25.8347H83.6543H82.6075V26.224V26.6133H89.2814H95.9553V26.224V25.8347H94.9084H93.8615V20.4907V15.1468H89.3396C86.8524 15.1468 84.7914 15.168 84.7594 15.194ZM98.9428 20.8623L98.9651 26.5779H99.3986H99.8322L102.521 23.7821C104 22.2443 106.141 20.016 107.278 18.8301L109.347 16.6741L109.369 21.6472L109.392 26.6203L109.893 26.5991L110.394 26.5779L110.416 20.8588L110.438 15.1397L109.962 15.1609L109.486 15.1821L107.105 17.6649C105.795 19.0304 103.683 21.2317 102.411 22.5567L100.099 24.9659L100.077 20.0563L100.054 15.1468H99.4874H98.9205L98.9428 20.8623ZM69.9007 15.483C70.0147 15.629 70.708 16.5128 71.4415 17.4471C72.98 19.407 73.2917 19.9088 73.4855 20.7379C73.6318 21.3636 73.6182 21.608 73.388 22.4926C73.2788 22.9124 73.2739 23.0473 73.3616 23.2191C73.4794 23.4499 73.7517 23.541 74.1072 23.4687C74.5567 23.3772 74.7087 22.6266 74.4522 21.7648C74.299 21.2499 74.2926 21.1838 74.4056 21.2754C74.5615 21.4019 74.9249 22.3458 75.0603 22.9759C75.1792 23.5292 75.1794 23.6857 75.0618 24.4494C74.9894 24.9193 74.8908 25.479 74.8426 25.6931C74.6533 26.5341 74.641 26.8602 74.7896 27.0935C75.0502 27.5022 75.6462 27.5919 76.108 27.292C76.3511 27.134 76.3692 27.0901 76.3623 26.673C76.3572 26.3585 76.2709 26.0332 76.0743 25.587C75.8587 25.0974 75.7927 24.8301 75.7896 24.4322C75.7848 23.814 75.721 23.9102 78.1582 20.8533C79.0458 19.7399 80.4101 18.0244 81.1898 17.0409L82.6075 15.2529L82.0201 15.2316C81.697 15.2199 81.421 15.2358 81.4067 15.267C81.3924 15.2982 80.7961 16.0563 80.0815 16.9517C79.367 17.8471 78.2002 19.319 77.4888 20.2225C76.7773 21.1261 76.175 21.8666 76.1502 21.8682C76.1255 21.8697 74.9337 20.3739 73.5019 18.5443L70.8986 15.2175H70.2961H69.6936L69.9007 15.483ZM92.7934 20.8623L92.771 25.7993L89.3032 25.8178L85.8354 25.8363V20.8808V15.9253H89.3256H92.8159L92.7934 20.8623ZM34.4495 20.9145C34.746 21.2043 34.013 21.9064 33.0145 22.2891C32.6897 22.4136 32.4088 22.5031 32.3902 22.488C32.2976 22.4129 32.9665 21.5125 33.3591 21.1837C33.8331 20.7865 34.2208 20.6908 34.4495 20.9145ZM25.3531 33.8507C25.1339 34.2497 24.559 35.2737 24.0755 36.1261C23.592 36.9786 23.1964 37.6893 23.1964 37.7053C23.1964 37.7213 23.3372 37.7246 23.5093 37.7125C23.8113 37.6913 23.8332 37.6702 24.1348 37.1066L24.4473 36.5227L26.0684 36.5232L27.6893 36.5239L27.9902 37.0971C28.3061 37.6989 28.3676 37.7507 28.7224 37.7136C28.9384 37.6908 28.9248 37.6611 27.7432 35.5671C26.2462 32.9142 26.3933 33.1252 26.0412 33.1252C25.7578 33.1252 25.7428 33.141 25.3531 33.8507ZM26.7734 34.9154C27.1092 35.5261 27.3839 36.0421 27.3839 36.0619C27.3839 36.0818 26.7951 36.098 26.0753 36.098C25.3556 36.098 24.7667 36.0748 24.7667 36.0463C24.7667 35.8916 26.0299 33.697 26.0905 33.7462C26.1303 33.7785 26.4376 34.3046 26.7734 34.9154ZM29.9139 36.6288V39H30.2193H30.5246V38.0743V37.1486L30.8813 37.3963C32.119 38.2559 34.0508 37.5944 34.2481 36.2436C34.4089 35.1412 33.4693 34.2553 32.1433 34.2592C31.5675 34.2609 31.026 34.4216 30.751 34.6724C30.5108 34.8914 30.4374 34.8607 30.4374 34.5408C30.4374 34.2734 30.4228 34.2577 30.1757 34.2577H29.9139V36.6288ZM34.5377 34.47V34.6823H35.3665H36.1953V36.2041V37.7259H36.457H36.7187V36.2041V34.6823H37.5475H38.3763V34.47V34.2577H36.457H34.5377V34.47ZM42.1277 35.9918V37.7259H42.433H42.7384V36.2041V34.6823H44.0906H45.4428V36.2041V37.7259H45.7045H45.9663V35.9918V34.2577H44.047H42.1277V35.9918ZM47.6238 36.6288V39H47.9292H48.2345V38.0716V37.1432L48.5708 37.3897C49.4108 38.0055 50.8529 37.8581 51.5423 37.086C52.326 36.2082 51.9776 34.903 50.8364 34.4417C50.0524 34.1247 48.9434 34.2323 48.4609 34.6724C48.2207 34.8914 48.1473 34.8607 48.1473 34.5408C48.1473 34.2734 48.1327 34.2577 47.8856 34.2577H47.6238V36.6288ZM54.0797 34.3754C53.6791 34.5149 53.2368 34.8608 53.0086 35.2132C52.8741 35.421 52.8245 35.6287 52.8224 35.9938C52.8199 36.4198 52.8579 36.5467 53.087 36.8785C53.7912 37.8986 55.5218 38.0813 56.5241 37.2413C56.9678 36.8695 57.1335 36.5171 57.1322 35.9482C57.1313 35.5191 56.851 34.9569 56.5121 34.7044C55.952 34.287 54.7866 34.1295 54.0797 34.3754ZM59.1833 34.4259C58.6635 34.6248 58.4265 34.8205 58.1873 35.2486C57.9921 35.598 57.9511 36.1839 58.0929 36.598C58.1956 36.898 58.708 37.4045 59.0568 37.5508C59.8676 37.891 60.9164 37.8232 61.5037 37.3927C61.6909 37.2555 61.8441 37.1227 61.8441 37.0977C61.8441 37.0726 61.7657 37.0124 61.6698 36.9638C61.5197 36.8878 61.4465 36.9043 61.143 37.0826C60.503 37.4588 59.6904 37.4321 59.1056 37.0155C58.6963 36.7238 58.5902 36.4722 58.6308 35.8892C58.6689 35.3421 58.8161 35.1161 59.3133 34.8416C59.8189 34.5624 60.8718 34.6474 61.2286 34.9962C61.3692 35.1335 61.4997 35.1363 61.7184 35.0066C61.8841 34.9083 61.883 34.902 61.6696 34.7141C61.1304 34.2394 60.0101 34.1096 59.1833 34.4259ZM62.1058 34.47V34.6823H62.891H63.6762V36.2041V37.7259H63.9815H64.2869V36.2041V34.6823H65.1157H65.9444V34.47V34.2577H64.0251H62.1058V34.47ZM66.7296 36.6288V39H67.035H67.3403V38.0666V37.1332L67.5802 37.3153C67.9984 37.6328 68.3855 37.7519 68.9979 37.7517C69.6618 37.7514 70.135 37.5846 70.544 37.2067C71.3384 36.4726 71.2436 35.2276 70.3478 34.6284C69.5471 34.093 68.0834 34.1473 67.5151 34.7335L67.3403 34.9138V34.5857C67.3403 34.258 67.34 34.2577 67.035 34.2577H66.7296V36.6288ZM72.7224 34.3972C72.0585 34.6077 71.9804 34.7131 72.2637 35.0162C72.2715 35.0245 72.4692 34.9529 72.7029 34.8569C73.0329 34.7213 73.2627 34.6823 73.7323 34.6823C74.3037 34.6823 74.3533 34.6956 74.6336 34.923C74.885 35.1269 74.9303 35.2134 74.9303 35.4893V35.8148H73.9242C72.8078 35.8148 72.4565 35.8923 72.1532 36.2051C72.0241 36.3383 71.9641 36.4993 71.9641 36.7127C71.9641 37.3963 72.494 37.7587 73.4889 37.7553C74.1069 37.7532 74.5156 37.6422 74.7502 37.4129C74.8959 37.2705 75.0175 37.3343 75.0175 37.5532C75.0175 37.6989 75.0595 37.7259 75.286 37.7259H75.5546L75.5259 36.3988C75.4928 34.8605 75.4277 34.6927 74.7571 34.4169C74.2586 34.2119 73.3352 34.2029 72.7224 34.3972ZM77.024 35.9918V37.7259H77.3294H77.6347V36.9827V36.2395H78.987H80.3392V36.9827V37.7259H80.6445H80.9499V35.9918V34.2577H80.6445H80.3392V35.0363V35.8148H78.987H77.6347V35.0363V34.2577H77.3294H77.024V35.9918ZM83.3145 34.4442C82.5185 34.766 82.1097 35.3979 82.1955 36.1739C82.3026 37.1418 83.1383 37.754 84.3523 37.754C84.9562 37.754 85.4059 37.6314 85.7451 37.3744C86.0577 37.1373 86.0692 37.0823 85.8306 36.9614C85.6748 36.8824 85.6171 36.8939 85.3904 37.0486C84.8627 37.4088 84.0305 37.4467 83.4681 37.136C82.9849 36.8691 82.8344 36.6377 82.7972 36.1045C82.7556 35.5072 82.9239 35.1783 83.4205 34.8865C83.708 34.7175 83.8547 34.6823 84.2725 34.6823C84.87 34.6823 85.1611 34.7609 85.4275 34.9941C85.6207 35.1633 85.6268 35.1639 85.8374 35.035L86.0512 34.9042L85.8342 34.7131C85.2808 34.2259 84.1524 34.1054 83.3145 34.4442ZM86.2716 34.4673V34.677L87.0786 34.6974L87.8855 34.7177L87.9091 36.2218L87.9326 37.7259H88.1926H88.4526V36.2041V34.6823H89.2814H90.1102V34.47V34.2577H88.1909H86.2716V34.4673ZM90.8953 35.9854V37.7259H92.1983C93.5877 37.7259 93.8548 37.6818 94.2313 37.3905C94.7046 37.0241 94.6187 36.3466 94.0652 36.0817L93.7647 35.9379L94.0371 35.7525C94.5614 35.3958 94.4563 34.691 93.8382 34.419C93.6134 34.3202 93.2863 34.2899 92.2258 34.27L90.8953 34.245V35.9854ZM96.8397 34.3546C95.4224 34.7707 95.0122 36.3752 96.098 37.2562C96.9118 37.9164 98.2561 37.9431 99.1133 37.3161C99.6025 36.9582 99.7896 36.5978 99.792 36.0087C99.7963 34.9357 98.9336 34.2478 97.6028 34.263C97.3445 34.266 97.0011 34.3072 96.8397 34.3546ZM93.0931 34.6563C93.5142 34.7128 93.7743 34.9148 93.7743 35.1853C93.7743 35.6777 93.4485 35.8148 92.2782 35.8148H91.506V35.2132V34.6116L92.1385 34.6123C92.4864 34.6128 92.9159 34.6326 93.0931 34.6563ZM32.8529 34.7996C33.8078 35.1672 33.9493 36.5331 33.0892 37.082C32.5716 37.4123 31.7545 37.4348 31.2041 37.1339C30.1701 36.5686 30.3437 35.0811 31.4843 34.7335C31.7638 34.6482 32.5596 34.6867 32.8529 34.7996ZM50.6394 34.8583C51.8708 35.4438 51.4834 37.1424 50.0744 37.3356C48.6949 37.5246 47.7564 36.3379 48.4397 35.2683C48.8106 34.6877 49.8667 34.4909 50.6394 34.8583ZM55.7312 34.786C56.9776 35.3089 56.7827 36.9396 55.4304 37.3017C54.4393 37.567 53.3817 36.9048 53.3817 36.0188C53.3817 35.5709 53.7279 35.0356 54.1441 34.8399C54.5371 34.6551 55.3532 34.6274 55.7312 34.786ZM69.8425 34.8865C70.0334 34.9987 70.2553 35.2026 70.3354 35.3396C70.5122 35.6419 70.5258 36.2985 70.362 36.6167C70.113 37.1003 69.3252 37.4294 68.6411 37.3356C67.8185 37.2228 67.3071 36.6545 67.36 35.9117C67.4165 35.1185 67.975 34.6913 68.963 34.6855C69.4145 34.6828 69.5478 34.7133 69.8425 34.8865ZM98.3384 34.7618C99.1535 35.1015 99.4836 35.9877 99.0491 36.6694C98.4902 37.5463 96.839 37.5854 96.3038 36.7344C95.8438 36.0027 96.0764 35.2056 96.8636 34.8162C97.1714 34.6639 98.0278 34.6323 98.3384 34.7618ZM38.7253 35.9587V36.1732L39.7504 36.1533L40.7754 36.1334L40.803 35.9387L40.8307 35.7441H39.7779H38.7253V35.9587ZM74.9303 36.4464C74.9303 37.0755 74.3823 37.4132 73.4506 37.3585C72.6892 37.3139 72.3418 36.9788 72.5778 36.5167C72.7264 36.2257 73.1721 36.1059 74.1233 36.1017L74.9303 36.098V36.4464ZM93.5935 36.2723C94.0212 36.4517 94.0852 36.8894 93.724 37.1647C93.5186 37.3213 93.4141 37.3382 92.5027 37.3616L91.506 37.3873V36.778V36.1688H92.4264C93.0635 36.1688 93.4227 36.2006 93.5935 36.2723Z" fill="white"/>
</svg>
